<svg width="122" height="51" viewBox="0 0 122 51" fill="none" xmlns="http://www.w3.org/2000/svg">
<path d="M12.9961 17.256V30.12C12.9961 31.016 13.2041 31.672 13.6201 32.088C14.0681 32.472 14.8041 32.664 15.8281 32.664H18.9481V38.328H14.7241C9.06012 38.328 6.22812 35.576 6.22812 30.072V17.256H3.06012V11.736H6.22812V5.16H12.9961V11.736H18.9481V17.256H12.9961Z" fill="white"/>
<path d="M30.5015 15.864C31.3655 14.456 32.4855 13.352 33.8615 12.552C35.2695 11.752 36.8695 11.352 38.6615 11.352V18.408H36.8855C34.7735 18.408 33.1735 18.904 32.0855 19.896C31.0295 20.888 30.5015 22.616 30.5015 25.08V27.828H23.7815V11.736H30.5015V15.864Z" fill="white"/>
<path d="M47.7321 8.568C46.5481 8.568 45.5561 8.2 44.7561 7.464C43.9881 6.696 43.6041 5.752 43.6041 4.632C43.6041 3.512 43.9881 2.584 44.7561 1.848C45.5561 1.08 46.5481 0.695999 47.7321 0.695999C48.9161 0.695999 49.8921 1.08 50.6601 1.848C51.4601 2.584 51.8601 3.512 51.8601 4.632C51.8601 5.752 51.4601 6.696 50.6601 7.464C49.8921 8.2 48.9161 8.568 47.7321 8.568ZM44.3241 11.328C48.0355 11.328 51.0441 14.3366 51.0441 18.048V38.328C47.3328 38.328 44.3241 35.3194 44.3241 31.608V11.328Z" fill="white"/>
<path d="M60.5801 15.576C61.4441 14.36 62.6281 13.352 64.1321 12.552C65.6681 11.72 67.4121 11.304 69.3641 11.304C71.6361 11.304 73.6841 11.864 75.5081 12.984C77.3641 14.104 78.8201 15.704 79.8761 17.784C80.9641 19.832 81.5081 22.216 81.5081 24.936C81.5081 27.656 80.9641 30.072 79.8761 32.184C78.8201 34.264 77.3641 35.88 75.5081 37.032C73.6841 38.184 71.6361 38.76 69.3641 38.76C67.4121 38.76 65.6841 38.36 64.1801 37.56C62.7081 36.76 61.5081 35.752 60.5801 34.536V51C56.8688 51 53.8601 47.9914 53.8601 44.28V11.328H56.3321C58.6782 11.328 60.5801 13.2299 60.5801 15.576ZM74.6441 24.936C74.6441 23.336 74.3081 21.96 73.6361 20.808C72.9961 19.624 72.1321 18.728 71.0441 18.12C69.9881 17.512 68.8361 17.208 67.5881 17.208C66.3721 17.208 65.2201 17.528 64.1321 18.168C63.0761 18.776 62.2121 19.672 61.5401 20.856C60.9001 22.04 60.5801 23.432 60.5801 25.032C60.5801 26.632 60.9001 28.024 61.5401 29.208C62.2121 30.392 63.0761 31.304 64.1321 31.944C65.2201 32.552 66.3721 32.856 67.5881 32.856C68.8361 32.856 69.9881 32.536 71.0441 31.896C72.1321 31.256 72.9961 30.344 73.6361 29.16C74.3081 27.976 74.6441 26.568 74.6441 24.936Z" fill="white"/>
<path d="M87.9881 8.568C86.8041 8.568 85.8121 8.2 85.0121 7.464C84.2441 6.696 83.8601 5.752 83.8601 4.632C83.8601 3.512 84.2441 2.584 85.0121 1.848C85.8121 1.08 86.8041 0.695999 87.9881 0.695999C89.1721 0.695999 90.1481 1.08 90.9161 1.848C91.7161 2.584 92.1161 3.512 92.1161 4.632C92.1161 5.752 91.7161 6.696 90.9161 7.464C90.1481 8.2 89.1721 8.568 87.9881 8.568ZM91.3001 11.736V31.608C91.3001 35.3194 88.2915 38.328 84.5801 38.328V18.456C84.5801 14.7447 87.5888 11.736 91.3001 11.736Z" fill="white"/>
<path d="M107.848 38.76C105.288 38.76 102.984 38.2 100.936 37.08C98.8881 35.928 97.2721 34.312 96.0881 32.232C94.9361 30.152 94.3601 27.752 94.3601 25.032C94.3601 22.312 94.9521 19.912 96.1361 17.832C97.3521 15.752 99.0001 14.152 101.08 13.032C103.16 11.88 105.48 11.304 108.04 11.304C110.6 11.304 112.92 11.88 115 13.032C117.08 14.152 118.712 15.752 119.896 17.832C121.112 19.912 121.72 22.312 121.72 25.032C121.72 27.752 121.096 30.152 119.848 32.232C118.632 34.312 116.968 35.928 114.856 37.08C112.776 38.2 110.44 38.76 107.848 38.76ZM107.848 32.904C109.064 32.904 110.2 32.616 111.256 32.04C112.344 31.432 113.208 30.536 113.848 29.352C114.488 28.168 114.808 26.728 114.808 25.032C114.808 22.504 114.136 20.568 112.792 19.224C111.48 17.848 109.864 17.16 107.944 17.16C106.024 17.16 104.408 17.848 103.096 19.224C101.816 20.568 101.176 22.504 101.176 25.032C101.176 27.56 101.8 29.512 103.048 30.888C104.328 32.232 105.928 32.904 107.848 32.904Z" fill="white"/>
<path d="M5.86011 2.328V11.828H13.3601V6.88956C13.3601 4.79641 11.9355 2.97186 9.90489 2.4642C9.54307 2.37374 9.17152 2.328 8.79855 2.328H5.86011Z" fill="white"/>
<path d="M23.3601 9.328V38.328C27.5022 38.328 30.8601 34.9701 30.8601 30.828V13.398C30.8601 11.5808 29.6555 9.98382 27.9082 9.4846C27.5446 9.38071 27.1683 9.328 26.7901 9.328H23.3601Z" fill="white"/>
<path d="M21.3601 10.328H11.8601L11.8601 17.828H16.7986C18.8917 17.828 20.7162 16.4034 21.2239 14.3728C21.3144 14.011 21.3601 13.6394 21.3601 13.2664V10.328Z" fill="white"/>
<path d="M42.3601 11.328H37.8601C36.1934 11.328 32.3601 12.228 30.3601 15.828C30.3601 15.828 30.8601 25.3739 30.8601 22.828C30.8601 21.328 32.0035 20.0248 33.3601 19.328C34.4166 18.7854 36.3601 18.828 36.3601 18.828H37.7986C39.8917 18.828 41.7162 17.4034 42.2239 15.3728C42.3144 15.011 42.3601 14.6394 42.3601 14.2664V11.328Z" fill="white"/>
<path d="M15.6268 30.328L12.8597 30.328L15.3597 38.328L19.3601 38.328L19.3601 34.0613C19.3601 31.9995 17.6886 30.328 15.6268 30.328Z" fill="white"/>
<path d="M0.860108 17.828H10.3601V10.328H4.86011C2.65097 10.328 0.860107 12.1189 0.860107 14.328L0.860108 17.828Z" fill="white"/>
</svg>
