<svg width="51" height="90" viewBox="0 0 51 90" fill="none" xmlns="http://www.w3.org/2000/svg">
<path d="M30.1241 37.0544V68.9856C30.1241 71.2097 30.6404 72.838 31.673 73.8706C32.7851 74.8238 34.612 75.3003 37.1538 75.3003H44.8983V89.3596H34.4134C20.3542 89.3596 13.3245 82.5285 13.3245 68.8665V37.0544H5.46089V23.3526H13.3245V7.02961H30.1241V23.3526H44.8983V37.0544H30.1241Z" fill="#FC379C"/>
<path d="M12.4111 0V23.581H31.0276V11.3227C31.0276 6.1271 27.4916 1.5982 22.4511 0.338069C21.5529 0.113537 20.6307 0 19.7049 0H12.4111Z" fill="#FC379C"/>
<path d="M50.8853 19.8577H27.3043L27.3043 38.4743H39.5626C44.7582 38.4743 49.2871 34.9382 50.5473 29.8977C50.7718 28.9996 50.8853 28.0773 50.8853 27.1515V19.8577Z" fill="#FC379C"/>
<path d="M36.654 69.5019L29.7856 69.5019L35.9911 89.3596L45.9209 89.3596L45.9209 78.7688C45.9209 73.6508 41.772 69.5019 36.654 69.5019Z" fill="#FC379C"/>
<path d="M3.79753e-07 38.4743H23.581V19.8577H9.92884C4.44529 19.8577 -2.39694e-07 24.303 0 29.7865L3.79753e-07 38.4743Z" fill="#FC379C"/>
</svg>
