<svg width="25" height="24" viewBox="0 0 25 24" fill="none" xmlns="http://www.w3.org/2000/svg">
<path d="M21.447 8.305C21.4369 7.54763 21.2951 6.79778 21.028 6.089C20.7964 5.49115 20.4425 4.9482 19.9892 4.49483C19.5358 4.04147 18.9929 3.68765 18.395 3.456C17.6953 3.19336 16.9562 3.05134 16.209 3.036C15.247 2.993 14.942 2.981 12.5 2.981C10.058 2.981 9.74501 2.981 8.79001 3.036C8.04317 3.05146 7.30436 3.19347 6.60501 3.456C6.00707 3.68749 5.46403 4.04125 5.01064 4.49464C4.55725 4.94802 4.2035 5.49106 3.97201 6.089C3.70884 6.78814 3.56713 7.52711 3.55301 8.274C3.51001 9.237 3.49701 9.542 3.49701 11.984C3.49701 14.426 3.49701 14.738 3.55301 15.694C3.56801 16.442 3.70901 17.18 3.97201 17.881C4.20389 18.4788 4.55791 19.0216 5.01145 19.4748C5.46499 19.928 6.00807 20.2816 6.60601 20.513C7.30344 20.7862 8.04238 20.9384 8.79101 20.963C9.75401 21.006 10.059 21.019 12.501 21.019C14.943 21.019 15.256 21.019 16.211 20.963C16.9582 20.9483 17.6974 20.8066 18.397 20.544C18.9947 20.3121 19.5375 19.9582 19.9909 19.5048C20.4442 19.0515 20.7981 18.5087 21.03 17.911C21.293 17.211 21.434 16.473 21.449 15.724C21.492 14.762 21.505 14.457 21.505 12.014C21.503 9.572 21.503 9.262 21.447 8.305ZM12.494 16.602C9.94001 16.602 7.87101 14.533 7.87101 11.979C7.87101 9.425 9.94001 7.356 12.494 7.356C13.7201 7.356 14.896 7.84307 15.763 8.71005C16.6299 9.57703 17.117 10.7529 17.117 11.979C17.117 13.2051 16.6299 14.381 15.763 15.248C14.896 16.1149 13.7201 16.602 12.494 16.602ZM17.301 8.263C17.1594 8.26313 17.0192 8.23534 16.8883 8.18121C16.7575 8.12709 16.6386 8.04769 16.5385 7.94756C16.4383 7.84743 16.3589 7.72854 16.3048 7.59769C16.2507 7.46684 16.2229 7.3266 16.223 7.185C16.223 7.0435 16.2509 6.90339 16.305 6.77266C16.3592 6.64193 16.4385 6.52315 16.5386 6.4231C16.6387 6.32304 16.7574 6.24367 16.8882 6.18952C17.0189 6.13537 17.159 6.1075 17.3005 6.1075C17.442 6.1075 17.5821 6.13537 17.7129 6.18952C17.8436 6.24367 17.9624 6.32304 18.0624 6.4231C18.1625 6.52315 18.2418 6.64193 18.296 6.77266C18.3501 6.90339 18.378 7.0435 18.378 7.185C18.378 7.781 17.896 8.263 17.301 8.263Z" fill="white"/>
<path d="M12.494 14.982C14.1525 14.982 15.497 13.6375 15.497 11.979C15.497 10.3205 14.1525 8.976 12.494 8.976C10.8355 8.976 9.491 10.3205 9.491 11.979C9.491 13.6375 10.8355 14.982 12.494 14.982Z" fill="white"/>
</svg>
