<svg width="25" height="24" viewBox="0 0 25 24" fill="none" xmlns="http://www.w3.org/2000/svg">
<path d="M20.133 7.997C20.146 8.172 20.146 8.346 20.146 8.52C20.146 13.845 16.093 19.981 8.686 19.981C6.404 19.981 4.284 19.32 2.5 18.172C2.824 18.209 3.136 18.222 3.473 18.222C5.28599 18.2264 7.04765 17.6201 8.474 16.501C7.63342 16.4858 6.81858 16.2085 6.14324 15.7077C5.4679 15.207 4.96578 14.5079 4.707 13.708C4.956 13.745 5.206 13.77 5.468 13.77C5.829 13.77 6.192 13.72 6.529 13.633C5.61676 13.4488 4.79647 12.9543 4.20762 12.2337C3.61876 11.513 3.29769 10.6106 3.299 9.68V9.63C3.836 9.929 4.459 10.116 5.119 10.141C4.56609 9.77358 4.11272 9.27502 3.79934 8.68979C3.48596 8.10456 3.32231 7.45085 3.323 6.787C3.323 6.039 3.522 5.353 3.871 4.755C4.88314 6.00002 6.1455 7.01856 7.57634 7.74466C9.00717 8.47075 10.5746 8.88821 12.177 8.97C12.115 8.67 12.077 8.359 12.077 8.047C12.0767 7.51796 12.1807 6.99406 12.3831 6.50524C12.5854 6.01642 12.8821 5.57227 13.2562 5.19819C13.6303 4.8241 14.0744 4.52741 14.5632 4.32508C15.0521 4.12274 15.576 4.01873 16.105 4.019C17.265 4.019 18.312 4.505 19.048 5.291C19.9498 5.11661 20.8145 4.78742 21.604 4.318C21.3034 5.24881 20.6738 6.0381 19.833 6.538C20.6328 6.44678 21.4144 6.23645 22.152 5.914C21.6011 6.7171 20.9185 7.42134 20.133 7.997Z" fill="white"/>
</svg>
